<?xml version="1.0" encoding="iso-8859-1"?>
<!-- Generator: Adobe Illustrator 19.0.0, SVG Export Plug-In . SVG Version: 6.00 Build 0)  -->
<svg version="1.1" id="Layer_1" xmlns="http://www.w3.org/2000/svg" xmlns:xlink="http://www.w3.org/1999/xlink" x="0px" y="0px"
	 viewBox="0 0 512 512" style="enable-background:new 0 0 512 512;" xml:space="preserve">
<g>
	<path style="fill:#434C6D;" d="M494.345,446.279V65.721C504.858,59.613,512,48.349,512,35.31C512,15.81,496.19,0,476.69,0
		c-13.038,0-24.294,7.15-30.411,17.655H65.721C59.604,7.15,48.349,0,35.31,0C15.81,0,0,15.81,0,35.31
		c0,13.038,7.142,24.302,17.655,30.411v380.557C7.142,452.396,0,463.651,0,476.69C0,496.19,15.81,512,35.31,512
		c13.038,0,24.294-7.142,30.411-17.655h380.557C452.396,504.858,463.651,512,476.69,512c19.5,0,35.31-15.81,35.31-35.31
		C512,463.651,504.858,452.396,494.345,446.279"/>
	<path style="fill:#E8EDEE;" d="M52.966,459.037h406.069V52.968H52.966V459.037z"/>
	<g>
		<path style="fill:#C7D6D8;" d="M97.103,141.244c-2.26,0-4.52-0.865-6.241-2.586c-3.452-3.452-3.452-9.031,0-12.482l35.31-35.31
			c3.452-3.452,9.031-3.452,12.482,0s3.452,9.031,0,12.482l-35.31,35.31C101.623,140.379,99.363,141.244,97.103,141.244"/>
		<path style="fill:#C7D6D8;" d="M97.103,185.382c-2.26,0-4.52-0.865-6.241-2.586c-3.452-3.452-3.452-9.031,0-12.482l17.655-17.655
			c3.452-3.452,9.031-3.452,12.482,0c3.452,3.452,3.452,9.031,0,12.482l-17.655,17.655
			C101.623,184.517,99.363,185.382,97.103,185.382"/>
		<path style="fill:#C7D6D8;" d="M150.069,132.416c-2.26,0-4.52-0.865-6.241-2.586c-3.452-3.452-3.452-9.031,0-12.482l26.483-26.483
			c3.452-3.452,9.031-3.452,12.482,0s3.452,9.031,0,12.482L156.31,129.83C154.589,131.551,152.329,132.416,150.069,132.416"/>
		<path style="fill:#C7D6D8;" d="M97.103,229.52c-2.26,0-4.52-0.865-6.241-2.586c-3.452-3.452-3.452-9.031,0-12.482l79.448-79.448
			c3.452-3.452,9.031-3.452,12.482,0s3.452,9.031,0,12.482l-79.448,79.448C101.623,228.655,99.363,229.52,97.103,229.52"/>
		<path style="fill:#C7D6D8;" d="M211.862,114.761c-2.26,0-4.52-0.865-6.241-2.586c-3.452-3.452-3.452-9.031,0-12.482l8.828-8.828
			c3.452-3.452,9.031-3.452,12.482,0c3.452,3.452,3.452,9.031,0,12.482l-8.828,8.828
			C216.382,113.896,214.122,114.761,211.862,114.761"/>
		<path style="fill:#C7D6D8;" d="M141.241,141.244c0,4.873-3.955,8.828-8.828,8.828c-4.873,0-8.828-3.955-8.828-8.828
			s3.955-8.828,8.828-8.828C137.287,132.416,141.241,136.371,141.241,141.244"/>
		<path style="fill:#C7D6D8;" d="M203.034,123.589c0,4.873-3.955,8.828-8.828,8.828s-8.828-3.955-8.828-8.828
			s3.955-8.828,8.828-8.828S203.034,118.716,203.034,123.589"/>
	</g>
</g>
<g>
</g>
<g>
</g>
<g>
</g>
<g>
</g>
<g>
</g>
<g>
</g>
<g>
</g>
<g>
</g>
<g>
</g>
<g>
</g>
<g>
</g>
<g>
</g>
<g>
</g>
<g>
</g>
<g>
</g>
</svg>
