<?xml version="1.0" encoding="iso-8859-1"?>
<!-- Generator: Adobe Illustrator 19.0.0, SVG Export Plug-In . SVG Version: 6.00 Build 0)  -->
<svg version="1.1" id="Layer_1" xmlns="http://www.w3.org/2000/svg" xmlns:xlink="http://www.w3.org/1999/xlink" x="0px" y="0px"
	 viewBox="0 0 512 512" style="enable-background:new 0 0 512 512;" xml:space="preserve">
<polyline style="fill:#B3B3B3;" points="9.098,411.281 83.717,411.281 83.717,219.379 9.098,219.379 "/>
<polyline style="fill:#999999;" points="9.1,411.281 83.718,411.281 83.718,364.953 9.1,364.953 "/>
<polyline style="fill:#B3B3B3;" points="428.281,411.281 502.9,411.281 502.9,219.379 428.281,219.379 "/>
<polyline style="fill:#999999;" points="428.282,411.281 502.902,411.281 502.902,364.953 428.282,364.953 "/>
<g>
	<polyline style="fill:#E6E6E6;" points="128.677,204.82 83.712,204.82 83.712,219.387 83.712,411.271 83.712,425.839 
		128.677,425.839 	"/>
	<polyline style="fill:#E6E6E6;" points="428.288,204.82 383.323,204.82 383.323,219.387 383.323,411.271 383.323,425.839 
		428.288,425.839 	"/>
	<polyline style="fill:#E6E6E6;" points="366.509,190.713 366.509,145.747 351.942,145.747 160.057,145.747 145.49,145.747 
		145.49,190.713 	"/>
</g>
<g>
	<polyline style="fill:#CCCCCC;" points="128.677,352.82 83.712,352.82 83.712,357.632 83.712,421.026 83.712,425.839 
		128.677,425.839 	"/>
	<polyline style="fill:#CCCCCC;" points="428.288,352.82 383.323,352.82 383.323,357.632 383.323,421.026 383.323,425.839 
		428.288,425.839 	"/>
	<polyline style="fill:#CCCCCC;" points="218.509,190.713 218.509,145.747 213.697,145.747 150.302,145.747 145.49,145.747 
		145.49,190.713 	"/>
</g>
<polyline style="fill:#B3B3B3;" points="160.049,71.133 160.049,145.752 351.951,145.752 351.951,71.133 "/>
<polyline style="fill:#999999;" points="160.048,71.134 160.048,145.754 206.377,145.754 206.377,71.134 "/>
<rect x="128.675" y="190.714" style="fill:#B3B3B3;" width="254.644" height="250.156"/>
<rect x="128.675" y="373.53" style="fill:#999999;" width="254.644" height="67.328"/>
<path style="fill:#333333;" d="M502.902,402.181h-65.515V228.476h65.515c5.026,0,9.098-4.074,9.098-9.098s-4.072-9.098-9.098-9.098
	h-65.515v-5.46c0-5.025-4.072-9.098-9.098-9.098h-35.867v-5.008c0-5.025-4.072-9.098-9.098-9.098h-7.714v-35.867
	c0-5.025-4.072-9.098-9.098-9.098h-5.46V71.134c0-5.025-4.072-9.098-9.098-9.098c-5.026,0-9.098,4.074-9.098,9.098v65.515H169.148
	V71.134c0-5.025-4.072-9.098-9.098-9.098c-5.026,0-9.098,4.074-9.098,9.098v65.515h-5.459c-5.026,0-9.098,4.074-9.098,9.098v35.867
	h-7.715c-5.026,0-9.098,4.074-9.098,9.098v5.008H83.712c-5.026,0-9.098,4.074-9.098,9.098v5.461H9.098
	c-5.026,0-9.098,4.074-9.098,9.098s4.072,9.098,9.098,9.098h65.515v173.704H9.098c-5.026,0-9.098,4.074-9.098,9.098
	s4.072,9.098,9.098,9.098h65.515v5.46c0,5.025,4.072,9.098,9.098,9.098h35.866v5.93c0,5.025,4.072,9.098,9.098,9.098h254.646
	c5.026,0,9.098-4.074,9.098-9.098v-5.93h35.867c5.026,0,9.098-4.074,9.098-9.098v-5.46H502.9c5.026,0,9.098-4.074,9.098-9.098
	S507.926,402.181,502.902,402.181z M92.81,416.741V213.917h26.767v202.824H92.81z M154.589,154.846h202.821v26.769H154.589V154.846z
	 M374.223,431.768H137.774V199.811h236.449V431.768z M392.42,416.741V213.917h26.769v202.824H392.42z"/>
<path style="fill:#FFFFFF;" d="M176.803,324.888H313.23l-8.278,8.277c-3.553,3.553-3.553,9.313,0,12.866
	c1.777,1.777,4.105,2.665,6.434,2.665c2.328,0,4.657-0.888,6.434-2.665l23.81-23.809c1.706-1.706,2.664-4.02,2.664-6.433
	s-0.958-4.728-2.664-6.433l-23.81-23.81c-3.554-3.553-9.314-3.553-12.867,0c-3.553,3.553-3.553,9.314,0,12.866l8.278,8.278h-48.133
	v-48.133l8.276,8.277c3.553,3.553,9.314,3.554,12.866,0c3.554-3.553,3.554-9.313,0.001-12.866l-23.809-23.81
	c-1.707-1.707-4.02-2.665-6.434-2.665s-4.726,0.958-6.434,2.665l-23.81,23.81c-3.553,3.553-3.553,9.314,0,12.866
	c1.777,1.776,4.106,2.665,6.434,2.665s4.657-0.888,6.434-2.665l8.277-8.277v48.134h-70.098c-5.026,0-9.098,4.074-9.098,9.098
	C167.704,320.815,171.778,324.888,176.803,324.888z"/>
<g>
</g>
<g>
</g>
<g>
</g>
<g>
</g>
<g>
</g>
<g>
</g>
<g>
</g>
<g>
</g>
<g>
</g>
<g>
</g>
<g>
</g>
<g>
</g>
<g>
</g>
<g>
</g>
<g>
</g>
</svg>
