<?xml version="1.0" encoding="iso-8859-1"?>
<!-- Generator: Adobe Illustrator 18.0.0, SVG Export Plug-In . SVG Version: 6.00 Build 0)  -->
<!DOCTYPE svg PUBLIC "-//W3C//DTD SVG 1.1//EN" "http://www.w3.org/Graphics/SVG/1.1/DTD/svg11.dtd">
<svg xmlns="http://www.w3.org/2000/svg" xmlns:xlink="http://www.w3.org/1999/xlink" version="1.1" id="Capa_1" x="0px" y="0px" viewBox="0 0 297 297" style="enable-background:new 0 0 297 297;" xml:space="preserve" width="512px" height="512px">
<g>
	<path d="M34.018,149.405c-2.251-0.616-4.599-0.936-6.999-0.936c-7.044,0-13.654,2.731-18.613,7.69l-0.716,0.716   C2.731,161.834,0,168.444,0,175.487s2.731,13.653,7.69,18.612l95.21,95.21c4.959,4.959,11.569,7.69,18.612,7.69   c7.043,0,13.653-2.731,18.612-7.69l0.715-0.716c4.96-4.958,7.692-11.568,7.692-18.612c0-2.4-0.32-4.748-0.936-6.999L34.018,149.405   z" fill="#eb658b"/>
	<path d="M148.448,118.685c-3.548-1.226-7.638-0.435-10.471,2.397l-19.866,19.867c-10.002-4.575-20.936-6.968-32.034-6.968   c-13.396,0-26.262,3.415-37.625,9.811l104.741,104.741c11.899-21.202,13.206-47.119,2.863-69.65l19.862-19.861   c2.832-2.832,3.624-6.923,2.398-10.47L148.448,118.685z" fill="#eb658b"/>
	<path d="M294.035,2.965c-3.955-3.953-10.363-3.953-14.318,0L166.246,116.437l14.318,14.318L294.035,17.283   C297.988,13.329,297.988,6.919,294.035,2.965z" fill="#eb658b"/>
</g>
<g>
</g>
<g>
</g>
<g>
</g>
<g>
</g>
<g>
</g>
<g>
</g>
<g>
</g>
<g>
</g>
<g>
</g>
<g>
</g>
<g>
</g>
<g>
</g>
<g>
</g>
<g>
</g>
<g>
</g>
</svg>
