<?xml version="1.0" encoding="iso-8859-1"?>
<!-- Generator: Adobe Illustrator 19.0.0, SVG Export Plug-In . SVG Version: 6.00 Build 0)  -->
<svg version="1.1" id="Layer_1" xmlns="http://www.w3.org/2000/svg" xmlns:xlink="http://www.w3.org/1999/xlink" x="0px" y="0px"
	 viewBox="0 0 503.537 503.537" style="enable-background:new 0 0 503.537 503.537;" xml:space="preserve">
<path style="fill:#7FABDA;" d="M384.182,362.296c0,0-15.89,33.545-22.069,46.786c-3.531,7.062-5.297,12.359-4.414,20.303
	c1.766,10.593,10.593,19.421,21.186,21.186c16.772,2.648,31.779-9.71,31.779-26.483c0-4.414-1.766-8.828-3.531-13.241
	C401.837,398.489,384.182,362.296,384.182,362.296"/>
<path style="fill:#C7CBC7;" d="M340.044,282.847h88.276v-35.31h-88.276V282.847z"/>
<path style="fill:#E8EDEE;" d="M163.493,468.227v-87.393c0-35.31,13.241-68.855,38.841-92.69
	c26.483-24.717,62.676-39.724,102.4-39.724l0,0h158.897v-78.566c0-15.007-12.359-27.366-27.366-27.366H304.734
	c-52.083,0-100.634,16.772-141.241,44.138V79.813H39.906v388.414H163.493z"/>
<g>
	<path style="fill:#C7CBC7;" d="M467.162,79.813H39.906c0-47.669,40.607-83.862,88.276-79.448L469.81,33.909
		c11.476,0.883,20.303,10.593,20.303,22.952S479.52,79.813,467.162,79.813"/>
	<path style="fill:#C7CBC7;" d="M189.975,503.537H13.424v-8.828c0-14.124,11.476-26.483,26.483-26.483h123.586
		c14.124,0,26.483,11.476,26.483,26.483V503.537z"/>
	<path style="fill:#C7CBC7;" d="M75.217,477.054c-5.297,0-8.828-3.531-8.828-8.828v-35.31c0-5.297,3.531-8.828,8.828-8.828
		c5.297,0,8.828,3.531,8.828,8.828v35.31C84.044,473.523,80.513,477.054,75.217,477.054"/>
	<path style="fill:#C7CBC7;" d="M75.217,371.123c-5.297,0-8.828-3.531-8.828-8.828v-70.621c0-5.297,3.531-8.828,8.828-8.828
		c5.297,0,8.828,3.531,8.828,8.828v70.621C84.044,367.592,80.513,371.123,75.217,371.123"/>
	<path style="fill:#C7CBC7;" d="M75.217,388.778c-5.297,0-8.828,3.531-8.828,8.828s3.531,8.828,8.828,8.828
		c5.297,0,8.828-3.531,8.828-8.828S80.513,388.778,75.217,388.778"/>
	<path style="fill:#C7CBC7;" d="M75.217,256.365c-5.297,0-8.828-3.531-8.828-8.828v-88.276c0-5.297,3.531-8.828,8.828-8.828
		c5.297,0,8.828,3.531,8.828,8.828v88.276C84.044,252.834,80.513,256.365,75.217,256.365"/>
	<path style="fill:#C7CBC7;" d="M75.217,115.123c-5.297,0-8.828-3.531-8.828-8.828V79.813c0-5.297,3.531-8.828,8.828-8.828
		c5.297,0,8.828,3.531,8.828,8.828v26.483C84.044,111.592,80.513,115.123,75.217,115.123"/>
</g>
<g>
</g>
<g>
</g>
<g>
</g>
<g>
</g>
<g>
</g>
<g>
</g>
<g>
</g>
<g>
</g>
<g>
</g>
<g>
</g>
<g>
</g>
<g>
</g>
<g>
</g>
<g>
</g>
<g>
</g>
</svg>
